<svg xmlns="http://www.w3.org/2000/svg" viewBox="0 0 400 300" width="400" height="300" role="presentation">
  <!-- Bolsas y mochilas · Bags and backpacks. -->
  <rect width="400" height="300" fill="#FAECE7"/>
  <rect x="0" y="0" width="400" height="34" fill="#D85A30"/>
  <g fill="#FAECE7">
    <rect x="26" y="0" width="26" height="34"/>
    <rect x="78" y="0" width="26" height="34"/>
    <rect x="130" y="0" width="26" height="34"/>
    <rect x="182" y="0" width="26" height="34"/>
    <rect x="234" y="0" width="26" height="34"/>
    <rect x="286" y="0" width="26" height="34"/>
    <rect x="338" y="0" width="26" height="34"/>
  </g>
  <rect x="0" y="34" width="400" height="4" fill="#993C1D"/>
  <!-- One scale for all of them, so three cards side by side do not look like
       three different illustrators. -->
  <g transform="translate(200 184) scale(0.84) translate(-200 -184)">
    <path d="M172 116 C168 74 232 74 228 116" fill="none" stroke="#2C2C2A" stroke-width="11"
          stroke-linecap="round"/>
    <rect x="138" y="106" width="124" height="152" rx="30" fill="#D85A30"/>
    <path d="M138 150 v-14 a30 30 0 0 1 30 -30 h64 a30 30 0 0 1 30 30 v14 z" fill="#993C1D"/>
    <rect x="190" y="140" width="20" height="22" rx="6" fill="#2C2C2A"/>
    <rect x="166" y="186" width="68" height="48" rx="14" fill="#FAECE7"/>
    <rect x="166" y="186" width="68" height="48" rx="14" fill="none" stroke="#2C2C2A"
          stroke-width="5"/>
    <rect x="190" y="176" width="20" height="14" rx="5" fill="#2C2C2A"/>
  </g>
</svg>
